<mxfile host="app.diagrams.net" modified="2022-02-10T13:49:16.757Z" agent="5.0 (Macintosh; Intel Mac OS X 10_15_7) AppleWebKit/537.36 (KHTML, like Gecko) Chrome/98.0.4758.80 Safari/537.36 Edg/98.0.1108.43" etag="wgT0jOabNbD7AUGpryqL" version="16.5.6" type="github">
  <diagram id="Jpcj-z6RrqYNlhLTczwW" name="Page-1">
    <mxGraphModel dx="1426" dy="769" grid="1" gridSize="10" guides="1" tooltips="1" connect="1" arrows="1" fold="1" page="1" pageScale="1" pageWidth="827" pageHeight="1169" math="0" shadow="0">
      <root>
        <mxCell id="0" />
        <mxCell id="1" parent="0" />
        <mxCell id="bBWqwcjACkO9o9_euC2M-7" value="zookeeper" style="whiteSpace=wrap;html=1;" vertex="1" parent="1">
          <mxGeometry x="401" y="571" width="80" height="30" as="geometry" />
        </mxCell>
        <mxCell id="bBWqwcjACkO9o9_euC2M-8" value="bp-auditing" style="whiteSpace=wrap;html=1;" vertex="1" parent="1">
          <mxGeometry x="507.25472307838515" y="626.7667806452523" width="80" height="30" as="geometry" />
        </mxCell>
        <mxCell id="bBWqwcjACkO9o9_euC2M-9" value="" style="rounded=0;" edge="1" source="bBWqwcjACkO9o9_euC2M-7" target="bBWqwcjACkO9o9_euC2M-8" parent="1">
          <mxGeometry x="120" y="330" as="geometry" />
        </mxCell>
        <mxCell id="bBWqwcjACkO9o9_euC2M-10" value="bce-logical-datasync" style="whiteSpace=wrap;html=1;" vertex="1" parent="1">
          <mxGeometry x="338.44741355489566" y="683.2019491222497" width="120" height="30" as="geometry" />
        </mxCell>
        <mxCell id="bBWqwcjACkO9o9_euC2M-11" value="" style="rounded=0;" edge="1" source="bBWqwcjACkO9o9_euC2M-7" target="bBWqwcjACkO9o9_euC2M-10" parent="1">
          <mxGeometry x="120" y="330" as="geometry" />
        </mxCell>
        <mxCell id="bBWqwcjACkO9o9_euC2M-12" value="dts-river" style="whiteSpace=wrap;html=1;" vertex="1" parent="1">
          <mxGeometry x="284.48698190887376" y="542.2821202854931" width="80" height="30" as="geometry" />
        </mxCell>
        <mxCell id="bBWqwcjACkO9o9_euC2M-13" value="" style="rounded=0;" edge="1" source="bBWqwcjACkO9o9_euC2M-7" target="bBWqwcjACkO9o9_euC2M-12" parent="1">
          <mxGeometry x="120" y="330" as="geometry" />
        </mxCell>
        <mxCell id="bBWqwcjACkO9o9_euC2M-14" value="nova-api" style="whiteSpace=wrap;html=1;" vertex="1" parent="1">
          <mxGeometry x="312.3189299335209" y="490.15652276241315" width="80" height="30" as="geometry" />
        </mxCell>
        <mxCell id="bBWqwcjACkO9o9_euC2M-15" value="" style="rounded=0;" edge="1" source="bBWqwcjACkO9o9_euC2M-7" target="bBWqwcjACkO9o9_euC2M-14" parent="1">
          <mxGeometry x="120" y="330" as="geometry" />
        </mxCell>
        <mxCell id="bBWqwcjACkO9o9_euC2M-16" value="aaa" style="whiteSpace=wrap;html=1;" vertex="1" parent="1">
          <mxGeometry x="223.6378598670418" y="409.3130455248263" width="80" height="30" as="geometry" />
        </mxCell>
        <mxCell id="bBWqwcjACkO9o9_euC2M-17" value="" style="rounded=0;" edge="1" source="bBWqwcjACkO9o9_euC2M-14" target="bBWqwcjACkO9o9_euC2M-16" parent="1">
          <mxGeometry x="120" y="330" as="geometry" />
        </mxCell>
        <mxCell id="bBWqwcjACkO9o9_euC2M-18" value="xdb" style="whiteSpace=wrap;html=1;" vertex="1" parent="1">
          <mxGeometry x="507.2547230783852" y="515.2332193547478" width="80" height="30" as="geometry" />
        </mxCell>
        <mxCell id="bBWqwcjACkO9o9_euC2M-19" value="" style="rounded=0;" edge="1" source="bBWqwcjACkO9o9_euC2M-18" target="bBWqwcjACkO9o9_euC2M-16" parent="1">
          <mxGeometry x="120" y="330" as="geometry" />
        </mxCell>
        <mxCell id="bBWqwcjACkO9o9_euC2M-20" value="" style="rounded=0;" edge="1" source="bBWqwcjACkO9o9_euC2M-7" target="bBWqwcjACkO9o9_euC2M-18" parent="1">
          <mxGeometry x="120" y="330" as="geometry" />
        </mxCell>
      </root>
    </mxGraphModel>
  </diagram>
</mxfile>
